<svg xmlns="http://www.w3.org/2000/svg" width="40" height="40" viewBox="60 -50 930 1000">
<path d="m 602,399 v 5 l 1,3 1,2 1,1 2,1 3,1 h 6 l 1,-1 h 2 v -2 l 1,-1 v -7 l -1,-2 -3,-3 -2,-1 h -5 l -4,1 z m 136,0 v 9 l 1,2 2,2 5,1 h 34 l 4,-1 2,-2 1,-2 v -9 l -1,-2 -2,-2 -2,-1 h -37 l -4,1 -2,2 z m -87,-2 v 11 l 1,2 4,2 7,1 h 29 l 4,-1 4,-4 v -8 l -1,-2 -3,-3 -4,-1 h -35 l -1,1 h -4 z M 324,312 h -3 l -2,1 -6,6 -13,18 -1,3 -7,10 -6,7 -33,48 -1,3 -15,22 -21,29 -6,11 v 7 l 4,4 3,2 h 7 l 2,-1 6,-7 26,-38 5,-9 3,-3 3,-6 8,-10 1,-3 15,-20 10,-16 11,-14 16,-23 3,-5 v -7 l -1,-2 -5,-5 z m -72,0 -2,-1 h -4 l -3,2 -8,9 -19,29 -8,10 -8,13 -8,10 -1,3 -22,31 -3,6 -5,6 -3,6 -17,24 -5,9 v 6 l 1,2 6,5 2,1 h 3 l 4,-2 6,-7 5,-9 5,-6 1,-3 2,-3 6,-7 1,-3 16,-22 1,-3 14,-19 1,-3 11,-16 8,-10 11,-16 1,-3 13,-18 4,-7 1,-5 -2,-4 z m 365,-148 -6,3 -5,5 -1,2 -1,3 v 6 l 1,4 2,3 5,5 4,2 4,1 h 5 l 6,-2 3,-2 3,-3 2,-3 1,-3 v -7 l -1,-3 -1,-2 -2,-3 -4,-4 -2,-1 -3,-1 z m -284,-1 -3,1 -4,2 -6,6 -2,4 v 8 l 1,3 1,2 2,2 v 1 l 1,1 h 1 l 5,4 4,1 h 7 l 3,-1 2,-1 2,-2 h 1 l 1,-1 3,-4 1,-2 1,-3 v -6 l -1,-3 -4,-5 v -1 l -1,-1 h -1 l -2,-2 -2,-1 -3,-1 -5,-1 z m -56,-153 -7,12 42,69 -47,34 -41,41 -33,46 -24,49 -42,7 -16,13 -9,15 -4,15 v 177 l 8,21 13,15 16,9 37,5 33,62 56,63 43,32 57,29 73,19 77,3 68,-12 63,-26 68,-48 56,-65 36,-70 18,-78 -1,-7 -264,-1 19,-68 245,-3 -3,-38 -10,-42 -37,-83 -59,-70 -59,-47 37,-60 2,-12 -7,-6 -13,6 -42,64 -73,-26 -89,-7 -73,11 -61,23 -45,-70 z m 518,452 -17,59 -23,47 -34,47 -34,34 -38,28 -39,21 -40,15 -50,10 -44,2 -60,-7 -48,-14 -42,-20 -44,-30 -32,-30 -34,-44 -21,-39 v -5 h 286 l 13,-2 15,-6 17,-15 8,-15 11,-37 245,-1 z m -676,-155 4,-8 8,-9 11,-6 14,-2 h 367 l 17,4 15,13 6,12 2,16 -4,18 -20,60 -23,80 -7,14 -9,9 -10,5 -21,2 H 150 l -10,-2 -9,-5 -10,-12 -4,-12 -1,-156 z m 103,-102 29,-36 43,-39 44,-28 48,-20 44,-10 37,-4 64,4 56,14 50,23 35,24 35,31 29,34 17,26 16,31 17,47 7,33 v 14 H 580 l 3,-14 v -22 l -4,-14 -9,-16 -9,-9 -24,-12 -44,-2 -301,-1 z" fill="#FFFFFF" stroke="#FFFFFF" stroke-width="40" stroke-linejoin="round" fill-rule="evenodd"/>
</svg>