<?xml version="1.0" encoding="UTF-8" standalone="no"?>
<svg
   height="1253.5607"
   version="1.1"
   viewBox="0 0 1295.8464 1253.5607"
   width="1295.8464"
   id="svg11"
   xmlns="http://www.w3.org/2000/svg"
   xmlns:svg="http://www.w3.org/2000/svg">
  <defs
     id="defs1" />
  <!-- Body outline - Android green -->
  <path
     d="m 1168.8896,10.084547 c -56.6667,14 -96.3667,49.06667 -172.69998,116.399993 -76.3333,67.33333 -122.1667,98.83333 -137.5,94.5 -15.3333,-4.33333 -17.6667,-22.83333 -7,-55.5 10.6667,-32.66667 25,-58.16667 43,-76.499993 18,-18.33333 19.8333,-39.33333 5.5,-63 -14.3333,-23.6666698 -33,-31.1666698 -56,-22.4999998 -23,8.6666698 -34,25.8333298 -33,51.4999998 1,25.66667 -8.5,56.333323 -28.5,91.999993 -20,35.66667 -65.1667,53.33333 -135.5,53 -70.3333,-0.33333 -115.3333,-18.5 -135,-54.5 -19.6667,-36 -29.6667,-67.666663 -30,-94.999993 -0.3333,-27.33333 -13.5,-43.1666698 -39.5,-47.4999998 -26,-4.33333 -44,5.33333 -54,28.9999998 -10,23.66667 -5.8333,43.33333 12.5,59 18.3333,15.666663 33.3333,39.999993 45,72.999993 11.6667,33 10.5,51.83333 -3.5,56.5 -14,4.66667 -62.5,-28.16667 -145.5,-98.5 -83,-70.333323 -137.83333,-106.166663 -164.5,-107.499993 -26.66667,-1.33333 -46.000005,25.33333 -58.000005,80 -12,54.666663 -17.16667,137.166663 -15.5,247.499993 1.66667,110.33333 -6.33333,186.66667 -24,229 -17.66667,42.33333 -28.8333296,85.33333 -33.4999996,129 -4.66667,43.66667 0.33333,94 14.9999996,151 14.66667,57 40.83333,110.6667 78.5,160.99996 37.666675,50.3333 93.666675,97.6667 168.000005,142 74.3333,44.3333 162,74.1667 263,89.5 101,15.3333 198.1667,13.1667 291.5,-6.5 93.3333,-19.6667 175.8333,-54.1667 247.49998,-103.5 71.6667,-49.3333 122.5,-96.1667 152.5,-140.49996 30,-44.3333 51.3333,-92.8333 64,-145.5 12.6667,-52.66667 16.8333,-101.16667 12.5,-145.5 -4.3333,-44.33333 -15.5,-88.16667 -33.5,-131.5 -18,-43.33333 -26.3333,-120.16667 -25,-230.5 1.3333,-110.33333 -5,-193.83333 -19,-250.499993 -14,-56.66667 -19.4667,-86.2999998 -47.8,-79.3 z"
     fill="#3DDC84"
     stroke="#3DDC84"
     stroke-width="15"
     id="path1" />
  <!-- Body inner - Catppuccin base -->
  <path
     d="m 150.58962,42.484547 c 45.33333,21.33333 72.1,49 148.1,114.999993 76,66 148.8333,92.5 218.5,79.5 69.6667,-13 149.5,-13.16667 239.5,-0.5 90,12.66667 171.6667,-13.83333 244.99998,-79.5 73.3333,-65.666663 122,-102.999993 146,-111.999993 24,-9 40.8333,15.66667 50.5,73.999993 9.6667,58.33333 13.3333,137.66667 11,238 -2.3333,100.33333 5.5,171.66667 23.5,214 18,42.33333 29.3333,85.83333 34,130.5 4.6667,44.66667 0,93.66667 -14,147 -14,53.3333 -38,102.6667 -72,148 -34,45.33326 -87,89.83326 -159,133.49996 -71.99998,43.6667 -154.66668,73 -247.99998,88 -93.3333,15 -187.1667,12.8333 -281.5,-6.5 -94.3333,-19.3333 -176.3333,-52.8333 -246,-100.5 -69.66667,-47.6667 -119.16667,-94.1667 -148.500005,-139.49996 -29.33333,-45.3333 -49.5,-92.1667 -60.5,-140.5 -11,-48.33333 -13.83333,-93.33333 -8.5,-135 5.33333,-41.66667 16.83333,-83.33333 34.5,-125 17.66667,-41.66667 25.33333,-114.83333 23,-219.5 -2.33333,-104.66667 2.16667,-185 13.5,-241 C 111.02295,54.484547 128.02295,31.817877 150.68962,42.484547 Z"
     fill="#1e1e2e"
     stroke="none"
     id="path2" />
  <!-- Nose - Android green -->
  <path
     d="m 578.68962,900.48454 q -10,11 -12,17.5 -2,6.5 -1.5,10.5 0.5,4 3.5,10.5 3,6.5 10,15 7,8.5 22.5,23.5 15.5,15 22.5,20 7,4.99996 14,7.49996 7,2.5 10.5,2.5 3.5,0 9.5,-2.5 6,-2.5 16.5,-10.49996 10.5,-8 26.5,-24 16,-16 23,-28 7,-12 6,-20 -1,-8 -6,-14.5 -5,-6.5 -14,-11 -9,-4.5 -22,-8 -13,-3.5 -22.5,-5 -9.5,-1.5 -22,-1 -12.5,0.5 -24.5,3 -12,2.5 -26,8.5 -14,6 -19,11.5 z"
     fill="#3DDC84"
     stroke="none"
     id="path3" />
  <!-- Right eye outer - Android green -->
  <path
     d="m 906.68962,550.48454 q -65,19 -91,39.5 -26,20.5 -43,48.5 -17,28 -22.5,50.5 -5.5,22.5 -6,38.5 -0.5,16 7,48.5 7.5,32.5 19.5,52 12,19.5 23.5,31.5 11.5,12 42,29.5 30.5,17.5 61.5,22 31,4.5 61,-2.5 30,-7 45.49998,-15.5 15.5,-8.5 32,-23.5 16.5,-15 33.5,-44.5 17,-29.5 22,-64.5 5,-35 2.5,-53.5 -2.5,-18.5 -9,-37 -6.5,-18.5 -27.5,-46.5 -21,-28 -51,-46 -29.99998,-18 -46.49998,-22 -16.5,-4 -35,-4.5 -18.5,-0.5 -51,9 z"
     fill="#3DDC84"
     stroke="none"
     id="path4" />
  <!-- Right eye inner - Catppuccin text -->
  <path
     d="m 912.68962,577.48454 q 32,2 48,6.5 16,4.5 38,19 21.99998,14.5 39.49998,39 17.5,24.5 24.5,52 7,27.5 4.5,54.5 -2.5,27 -8.5,42.5 -6,15.5 -15,29 -9,13.5 -18,23 -9,9.5 -23,19 -13.99998,9.5 -24.99998,14.5 -11,5 -29,8.5 -18,3.5 -47,-0.5 -29,-4 -52,-17.5 -23,-13.5 -41,-35 -18,-21.5 -25,-38 -7,-16.5 -10,-32.5 -3,-16 -0.5,-42.5 2.5,-26.5 7.5,-40 5,-13.5 15.5,-30 10.5,-16.5 33.5,-35.5 23,-19 37.5,-25 14.5,-6 30,-8.5 15.5,-2.5 31.5,-1.5 z"
     fill="#cdd6f4"
     stroke="none"
     id="path5" />
  <!-- Right eye pupil - Catppuccin base -->
  <path
     d="m 876.68962,633.48454 q -38,14 -49.5,25 -11.5,11 -19.5,26.5 -8,15.5 -10.5,35.5 -2.5,20 1,36 3.5,16 8,24.5 4.5,8.5 13,18.5 8.5,10 22.5,18.5 14,8.5 31,11.5 17,3 34,-1 17,-4 33,-16.5 16,-12.5 25,-28.5 9,-16 11,-40 2,-24 -1,-36 -3,-12 -8.5,-21.5 -5.5,-9.5 -6,-0.5 -0.5,9 -8,18.5 -7.5,9.5 -17.5,12 -10,2.5 -16.5,-0.5 -6.5,-3 -13,-12.5 -6.5,-9.5 -5.5,-21 1,-11.5 8.5,-19.5 7.5,-8 18.5,-10 11,-2 -4,-9.5 -15,-7.5 -30.5,-8.5 -15.5,-1 -34.5,6 z"
     fill="#1e1e2e"
     stroke="none"
     id="path6" />
  <!-- Left eye outer - Android green -->
  <path
     d="m 364.68962,550.48454 q -37,7 -55,14.5 -18,7.5 -43.5,28.5 -25.5,21 -42,51 -16.5,30 -21,65 -4.5,35 3,67 7.5,32 19.5,51.5 12,19.5 24.5,32.5 12.5,13 42,29.5 29.5,16.5 59.5,21 30,4.5 49.5,1.5 19.5,-3 39,-11 19.5,-8 45,-29.5 25.5,-21.5 35,-35 9.5,-13.5 17,-31.5 7.5,-18 11,-53.5 3.5,-35.5 -0.5,-56 -4,-20.5 -12,-38.5 -8,-18 -27,-41 -19,-23 -46,-39.5 -27,-16.5 -44.5,-21 -17.5,-4.5 -35.5,-5 -18,-0.5 -36.5,3 z"
     fill="#3DDC84"
     stroke="none"
     id="path7" />
  <!-- Left eye inner - Catppuccin text -->
  <path
     d="m 370.68962,577.48454 q 56,9 80.5,24.5 24.5,15.5 42.5,41 18,25.5 25,53.5 7,28 6.5,43 -0.5,15 -5,32 -4.5,17 -18.5,40.5 -14,23.5 -34.5,40.5 -20.5,17 -33.5,23 -13,6 -31,9.5 -18,3.5 -46.5,-0.5 -28.5,-4 -53,-18.5 -24.5,-14.5 -43.5,-39.5 -19,-25 -26.5,-54.5 -7.5,-29.5 -4,-58 3.5,-28.5 16.5,-53.5 13,-25 36,-44.5 23,-19.5 39.5,-26.5 16.5,-7 33,-9.5 16.5,-2.5 44.5,2 z"
     fill="#cdd6f4"
     stroke="none"
     id="path8" />
  <!-- Left eye pupil - Catppuccin base -->
  <path
     d="m 400.68962,633.48454 q -34,11 -48,23 -14,12 -22.5,28 -8.5,16 -11,36 -2.5,20 1,36 3.5,16 14.5,32.5 11,16.5 26,26.5 15,10 33.5,13.5 18.5,3.5 35,-0.5 16.5,-4 24.5,-8.5 8,-4.5 16,-12 8,-7.5 16,-21 8,-13.5 11.5,-33.5 3.5,-20 1.5,-34.5 -2,-14.5 -9,-28.5 -7,-14 -7,-7 0,7 -8.5,18.5 -8.5,11.5 -18.5,14 -10,2.5 -16.5,-0.5 -6.5,-3 -13,-13 -6.5,-10 -5.5,-21 1,-11 9,-19.5 8,-8.5 14,-10.5 6,-2 11,-1.5 5,0.5 -8,-6.5 -13,-7 -29.5,-8.5 -16.5,-1.5 -33.5,4 z"
     fill="#1e1e2e"
     stroke="none"
     id="path9" />
  <!-- Right ear - Android green -->
  <path
     d="m 1119.6896,129.48454 q -31,18 -99,77 -67.99998,59 -69.49998,66 -1.5,7 3.5,12 5,5 28,17.5 22.99998,12.5 46.49998,29 23.5,16.5 60.5,49 37,32.5 45,34 8,1.5 14,-4.5 6,-6 8,-17 2,-11 5,-62 3,-51 2.5,-86.5 -0.5,-35.5 -3.5,-56.5 -3,-21 -7,-32 -4,-11 -10.5,-17.5 -6.5,-6.5 -15,-7.5 -8.5,-1 -24,8 z"
     fill="#3DDC84"
     stroke="none"
     id="path10" />
  <!-- Left ear - Android green -->
  <path
     d="m 176.68962,129.48454 q -18,3 -25,11.5 -7,8.5 -10.5,19.5 -3.5,11 -6.5,32.5 -3,21.5 -3.5,49.5 -0.5,28 2.5,79 3,51 5.5,66.5 2.5,15.5 8.5,21.5 6,6 15,3.5 9,-2.5 48,-36.5 39,-34 60,-48.5 21,-14.5 44.5,-27 23.5,-12.5 27.5,-19 4,-6.5 -0.5,-14.5 -4.5,-8 -74.5,-68 -70,-60 -80.5,-65 -10.5,-5 -19.5,-3.5 z"
     fill="#3DDC84"
     stroke="none"
     id="path11" />
</svg>
