<?xml version="1.0" standalone="no"?>
<!DOCTYPE svg PUBLIC "-//W3C//DTD SVG 20010904//EN"
 "http://www.w3.org/TR/2001/REC-SVG-20010904/DTD/svg10.dtd">
<svg version="1.0" xmlns="http://www.w3.org/2000/svg"
 width="568.000000pt" height="562.000000pt" viewBox="0 0 568.000000 562.000000"
 preserveAspectRatio="xMidYMid meet">
<metadata>
Created by potrace 1.16, written by Peter Selinger 2001-2019
</metadata>
<g transform="translate(0.000000,562.000000) scale(0.100000,-0.100000)"
fill="#000000" stroke="none">
<path d="M1413 5298 c-6 -7 -16 -23 -22 -35 -14 -28 -7 -43 124 -258 152 -249
177 -294 170 -305 -3 -4 -29 -22 -59 -38 -29 -17 -59 -37 -67 -44 -8 -8 -43
-34 -79 -58 -94 -63 -325 -301 -395 -407 -63 -93 -185 -327 -185 -353 0 -9 -4
-20 -8 -25 -7 -9 -21 -50 -63 -189 -13 -43 -10 -88 7 -111 15 -20 28 -20 1867
-23 1019 -1 1867 0 1885 3 19 4 39 16 49 31 19 30 11 79 -44 244 -96 291 -286
570 -513 753 -41 34 -77 64 -80 68 -3 3 -54 38 -113 78 -117 79 -119 82 -76
143 11 14 19 31 19 37 0 6 3 11 8 11 4 0 12 10 18 23 6 12 24 45 41 72 128
210 183 310 183 334 0 29 -43 61 -81 61 -38 -1 -40 -3 -113 -124 -46 -76 -60
-100 -107 -183 -12 -21 -25 -42 -29 -48 -4 -5 -20 -32 -36 -60 -60 -109 -73
-126 -92 -116 -9 5 -34 16 -54 25 -21 9 -53 22 -70 30 -30 13 -115 42 -193 66
-139 42 -413 80 -575 80 -153 0 -370 -29 -530 -71 -134 -35 -188 -54 -322
-113 -20 -9 -41 -16 -47 -16 -5 0 -22 21 -37 48 -15 26 -42 71 -60 99 -19 29
-34 55 -34 59 0 3 -13 25 -30 49 -16 24 -30 48 -30 54 0 6 -4 11 -10 11 -5 0
-10 4 -10 9 0 9 -68 125 -102 174 -15 21 -27 27 -57 27 -21 0 -43 -6 -48 -12z
m1610 -488 c23 -5 67 -14 97 -20 304 -61 572 -185 815 -378 89 -71 227 -214
305 -317 86 -113 230 -413 230 -478 0 -16 -115 -17 -1733 -17 -954 0 -1736 2
-1739 5 -14 14 95 285 143 355 9 14 26 41 37 62 11 20 27 44 35 55 107 132
174 208 228 257 62 57 243 196 255 196 3 0 25 14 49 30 24 17 46 30 49 30 3 0
27 13 53 28 49 29 241 108 301 123 17 5 49 14 70 20 101 29 210 49 317 59 99
10 430 3 488 -10z"/>
<path d="M1864 4200 c-96 -22 -147 -129 -106 -223 29 -65 93 -94 178 -81 49 7
88 39 110 92 50 121 -53 241 -182 212z"/>
<path d="M3527 4203 c-46 -7 -104 -73 -112 -126 -10 -64 2 -103 41 -142 59
-59 170 -58 225 2 51 56 56 143 12 210 -28 42 -100 67 -166 56z"/>
<path d="M970 3168 c-156 -66 -238 -161 -272 -318 -13 -57 -18 -65 -39 -68
-90 -9 -143 -35 -204 -97 -41 -40 -55 -65 -73 -121 -21 -67 -22 -84 -22 -504
0 -422 7 -537 33 -590 12 -26 18 -34 62 -87 32 -40 124 -86 185 -93 l45 -5 6
-340 c3 -190 10 -356 16 -376 45 -155 147 -247 316 -288 59 -14 3176 -15 3357
-1 88 6 129 14 173 33 78 35 148 104 189 185 l33 67 3 350 c2 225 7 354 14
362 6 7 21 13 34 13 22 0 40 6 113 38 47 20 112 88 141 147 l25 50 0 510 0
510 -28 55 c-51 98 -121 153 -221 175 -36 7 -69 16 -75 20 -6 3 -11 27 -11 52
0 62 -50 164 -109 222 -43 42 -87 69 -164 100 -38 15 -3490 15 -3527 -1z
m3515 -157 c22 -10 56 -36 76 -58 72 -79 69 -46 67 -933 l-3 -795 -590 0 -590
0 -28 75 c-42 108 -43 113 -55 140 -5 14 -33 86 -62 160 -76 200 -86 219 -115
226 -30 7 -65 -13 -81 -47 -11 -24 -39 -111 -64 -199 -7 -25 -16 -54 -20 -65
-12 -33 -27 -84 -55 -185 -14 -52 -30 -106 -34 -120 -5 -14 -14 -45 -21 -70
-23 -82 -43 -131 -50 -123 -5 4 -11 37 -14 73 -7 79 -22 192 -56 428 -16 115
-28 201 -39 282 -5 41 -21 158 -36 260 -27 190 -42 303 -54 400 -9 69 -24 98
-57 106 -38 10 -73 -14 -84 -55 -5 -20 -16 -90 -25 -156 -9 -66 -23 -169 -31
-230 -15 -104 -21 -147 -45 -310 -6 -38 -14 -97 -19 -130 -5 -33 -14 -94 -20
-135 -6 -41 -16 -102 -21 -135 -5 -33 -12 -93 -15 -133 -4 -40 -10 -75 -14
-77 -7 -5 -28 46 -49 120 -6 22 -22 76 -35 120 -14 44 -39 127 -56 185 -17 58
-36 115 -42 127 -15 31 -58 44 -90 27 -28 -15 -27 -13 -69 -134 -17 -47 -34
-94 -38 -105 -5 -11 -14 -36 -21 -55 -7 -19 -16 -44 -21 -55 -4 -11 -20 -56
-34 -99 -14 -43 -30 -87 -36 -98 -9 -17 -30 -18 -497 -16 l-487 3 -3 811 c-2
908 -7 851 70 926 23 22 55 46 72 54 26 11 330 13 1741 13 1633 1 1712 0 1750
-18z m-3795 -982 c0 -528 -2 -599 -15 -599 -31 0 -106 43 -128 74 -22 31 -22
36 -29 491 -6 475 -4 525 33 576 26 36 107 74 132 62 4 -2 7 -274 7 -604z
m4171 587 c35 -15 54 -33 77 -73 9 -17 12 -140 12 -518 l0 -495 -38 -37 c-36
-37 -113 -70 -133 -58 -5 4 -9 240 -9 601 l0 594 29 0 c16 0 44 -6 62 -14z
m-2271 -716 c5 -10 15 -56 20 -102 5 -46 12 -99 15 -118 12 -79 37 -256 55
-380 23 -166 60 -440 70 -515 16 -115 29 -177 41 -192 17 -19 83 -16 101 5 8
9 39 103 68 207 28 105 58 208 65 230 6 22 18 60 25 85 7 25 16 54 20 65 4 11
13 40 20 65 7 25 21 70 30 100 10 30 24 76 31 103 20 72 30 64 78 -63 18 -47
37 -95 42 -107 25 -63 32 -79 40 -95 5 -10 9 -23 9 -30 0 -7 11 -26 24 -43
l24 -30 629 -5 628 -5 3 -220 c2 -145 -1 -234 -9 -262 -15 -55 -67 -115 -124
-142 l-45 -21 -1719 0 c-1886 0 -1739 -5 -1808 61 -69 64 -73 85 -73 351 l0
238 524 0 525 0 26 23 c16 13 36 50 50 92 62 184 94 270 103 273 10 3 32 -41
32 -64 0 -8 4 -22 9 -32 5 -9 15 -37 21 -62 7 -25 16 -54 20 -65 4 -11 13 -38
19 -60 6 -22 22 -76 35 -120 14 -44 35 -114 47 -155 27 -90 50 -120 94 -120
46 0 66 28 75 107 9 78 65 478 80 568 5 33 14 98 20 145 6 47 15 107 21 133 5
27 9 67 9 90 0 41 9 87 16 87 2 0 8 -9 14 -20z"/>
<path d="M4054 2765 c-163 -82 -163 -312 0 -393 92 -46 172 -38 246 25 58 50
74 85 74 168 1 59 -3 77 -26 116 -39 67 -97 101 -178 106 -55 4 -72 1 -116
-22z"/>
</g>
</svg>
